<svg width="40" height="40" viewBox="0 0 40 40" fill="none" xmlns="http://www.w3.org/2000/svg">
<path d="M20 40C31.0457 40 40 31.0457 40 20C40 8.9543 31.0457 0 20 0C8.9543 0 0 8.9543 0 20C0 31.0457 8.9543 40 20 40Z" fill="#3C5A96"/>
<path d="M25.858 9.5H22.758C21.3896 9.50133 20.0776 10.0459 19.1104 11.014C18.1433 11.9821 17.6 13.2946 17.6 14.663V17.763H14.5V21.893H17.6V30.153H21.73V21.89H24.83L25.863 17.76H21.733V14.66C21.7338 14.3876 21.8421 14.1265 22.0345 13.9336C22.2268 13.7407 22.4876 13.6316 22.76 13.63H25.86L25.858 9.5Z" stroke="#FBF9F7" stroke-width="2" stroke-linecap="round" stroke-linejoin="round"/>
</svg>
